<svg width="351" height="221" viewBox="0 0 351 221" fill="none" xmlns="http://www.w3.org/2000/svg">
<path d="M0.173553 20.05C0.173553 9.00435 9.12786 0.0500488 20.1736 0.0500488H330.174C341.219 0.0500488 350.174 9.00435 350.174 20.05V200.05C350.174 211.096 341.219 220.05 330.174 220.05H20.1736C9.12786 220.05 0.173553 211.096 0.173553 200.05V20.05Z" fill="#356B22"/>
<path d="M107.474 159.616L106.111 156.096H106.615L107.53 158.653C107.603 158.858 107.665 159.05 107.714 159.229C107.769 159.037 107.832 158.845 107.904 158.653L108.855 156.096H109.33L107.952 159.616H107.474Z" fill="white"/>
<path d="M108.997 159.616L110.348 156.096H110.85L112.291 159.616H111.76L111.35 158.55H109.878L109.491 159.616H108.997ZM110.012 158.171H111.206L110.838 157.196C110.726 156.9 110.643 156.656 110.589 156.466C110.544 156.691 110.48 156.916 110.399 157.138L110.012 158.171Z" fill="white"/>
<path d="M112.644 159.616V156.096H113.11V159.201H114.843V159.616H112.644Z" fill="white"/>
<path d="M115.479 159.616V156.096H115.945V159.616H115.479Z" fill="white"/>
<path d="M116.769 159.616V156.096H117.981C118.255 156.096 118.464 156.113 118.608 156.146C118.81 156.193 118.982 156.277 119.124 156.399C119.31 156.555 119.448 156.756 119.54 157.001C119.632 157.244 119.679 157.523 119.679 157.837C119.679 158.104 119.648 158.341 119.585 158.547C119.523 158.754 119.443 158.925 119.345 159.061C119.247 159.196 119.14 159.302 119.023 159.381C118.908 159.457 118.768 159.516 118.603 159.556C118.44 159.596 118.252 159.616 118.039 159.616H116.769ZM117.235 159.201H117.986C118.218 159.201 118.4 159.179 118.531 159.136C118.664 159.093 118.77 159.032 118.848 158.953C118.959 158.843 119.044 158.695 119.105 158.509C119.167 158.322 119.199 158.095 119.199 157.83C119.199 157.461 119.138 157.179 119.016 156.982C118.896 156.783 118.75 156.651 118.577 156.583C118.452 156.535 118.251 156.511 117.974 156.511H117.235V159.201Z" fill="white"/>
<path d="M107.364 165.353V162.248H106.204V161.833H108.994V162.248H107.83V165.353H107.364Z" fill="white"/>
<path d="M109.489 165.353V161.833H109.955V163.278H111.784V161.833H112.25V165.353H111.784V163.694H109.955V165.353H109.489Z" fill="white"/>
<path d="M113.035 165.353V161.833H114.596C114.91 161.833 115.148 161.865 115.311 161.929C115.475 161.991 115.605 162.103 115.703 162.263C115.8 162.423 115.849 162.6 115.849 162.793C115.849 163.043 115.768 163.254 115.607 163.425C115.445 163.596 115.195 163.705 114.858 163.751C114.981 163.811 115.074 163.869 115.138 163.927C115.275 164.051 115.403 164.208 115.525 164.395L116.137 165.353H115.551L115.086 164.621C114.95 164.409 114.838 164.248 114.75 164.136C114.661 164.023 114.582 163.945 114.512 163.9C114.443 163.855 114.373 163.824 114.301 163.807C114.248 163.795 114.161 163.79 114.041 163.79H113.501V165.353H113.035ZM113.501 163.386H114.502C114.715 163.386 114.882 163.365 115.002 163.322C115.122 163.277 115.213 163.206 115.275 163.11C115.338 163.013 115.369 162.907 115.369 162.793C115.369 162.627 115.308 162.49 115.187 162.383C115.066 162.275 114.876 162.222 114.615 162.222H113.501V163.386Z" fill="white"/>
<path d="M118.891 161.833H119.357V163.867C119.357 164.22 119.317 164.501 119.237 164.709C119.157 164.917 119.012 165.087 118.802 165.218C118.594 165.348 118.321 165.413 117.981 165.413C117.652 165.413 117.382 165.356 117.172 165.242C116.962 165.129 116.813 164.965 116.723 164.75C116.634 164.534 116.589 164.24 116.589 163.867V161.833H117.055V163.864C117.055 164.17 117.083 164.396 117.139 164.541C117.196 164.685 117.294 164.797 117.432 164.875C117.571 164.953 117.74 164.993 117.941 164.993C118.283 164.993 118.527 164.915 118.673 164.76C118.819 164.605 118.891 164.306 118.891 163.864V161.833Z" fill="white"/>
<path d="M42.4167 84.0139C42.4167 80.3929 45.3521 77.4575 48.9732 77.4575H78.6426C82.2636 77.4575 85.199 80.3929 85.199 84.0139V103.494C85.199 107.115 82.2636 110.05 78.6426 110.05H48.9732C45.3521 110.05 42.4167 107.115 42.4167 103.494V84.0139Z" fill="#DDD9D6"/>
<path d="M69.821 84.6125C68.3589 81.6928 66.062 79.4002 64.5511 78.5043C64.4512 78.4466 64.3783 78.3515 64.3485 78.24C64.3187 78.1285 64.3345 78.0097 64.3923 77.9098C64.45 77.8099 64.5451 77.7371 64.6567 77.7073C64.7682 77.6775 64.8869 77.6932 64.9868 77.751C66.9661 78.9116 69.2671 81.5747 70.5866 84.2053C70.6184 84.2557 70.6387 84.3124 70.6462 84.3715C70.6536 84.4306 70.648 84.4906 70.6298 84.5473C70.6115 84.604 70.5811 84.656 70.5405 84.6996C70.5 84.7433 70.4504 84.7775 70.3952 84.7999C70.3364 84.8316 70.2707 84.8484 70.2038 84.8487C70.1243 84.8488 70.0464 84.8268 69.9788 84.785C69.9112 84.7433 69.8565 84.6836 69.821 84.6125Z" fill="white"/>
<path d="M56.5852 98.584C56.6137 102.632 60.4215 107.457 63.0443 109.017C63.0949 109.043 63.1394 109.08 63.1749 109.125C63.2103 109.169 63.236 109.221 63.2502 109.276C63.2644 109.332 63.2668 109.389 63.2573 109.446C63.2478 109.502 63.2266 109.556 63.1949 109.603C63.1565 109.667 63.1023 109.72 63.0373 109.758C62.9724 109.795 62.8991 109.814 62.8243 109.815C62.7481 109.815 62.6733 109.794 62.6085 109.754C59.8106 108.105 55.9824 103.283 55.7381 98.9668H42.8443C42.7376 98.9564 42.6386 98.9067 42.5665 98.8272C42.4944 98.7478 42.4545 98.6444 42.4545 98.5372C42.4545 98.43 42.4944 98.3266 42.5665 98.2472C42.6386 98.1678 42.7376 98.118 42.8443 98.1076H55.8195C56.6322 95.2596 56.6322 92.2412 55.8195 89.3932H42.8443C42.7309 89.3932 42.6222 89.3482 42.542 89.268C42.4618 89.1878 42.4167 89.0791 42.4167 88.9657C42.4167 88.8523 42.4618 88.7435 42.542 88.6633C42.6222 88.5831 42.7309 88.5381 42.8443 88.5381H55.7381C55.9824 84.2053 59.8269 79.4002 62.6085 77.751C62.7084 77.6932 62.8272 77.6775 62.9387 77.7073C63.0502 77.7371 63.1453 77.8099 63.2031 77.9098C63.2609 78.0097 63.2766 78.1285 63.2468 78.24C63.217 78.3515 63.1442 78.4466 63.0443 78.5043C60.4215 80.0436 56.6137 84.8732 56.5852 88.9249C57.518 92.0771 57.518 95.4319 56.5852 98.584Z" fill="white"/>
<path d="M84.7714 98.1077H71.7718C70.9591 95.2597 70.9591 92.2413 71.7718 89.3933H84.7714C84.8848 89.3933 84.9936 89.3483 85.0738 89.2681C85.154 89.1879 85.199 89.0791 85.199 88.9657C85.199 88.8523 85.154 88.7436 85.0738 88.6634C84.9936 88.5832 84.8848 88.5382 84.7714 88.5382H71.4419C71.3492 88.5392 71.2593 88.5704 71.1859 88.6269C71.1124 88.6835 71.0593 88.7624 71.0346 88.8517C70.0878 92.0268 70.0878 95.4091 71.0346 98.5841C71.0061 102.632 67.1983 107.457 64.5755 109.017C64.5236 109.042 64.4775 109.078 64.4403 109.122C64.4032 109.166 64.3758 109.217 64.36 109.273C64.3443 109.328 64.3404 109.386 64.3488 109.443C64.3572 109.5 64.3775 109.555 64.4086 109.603C64.447 109.667 64.5013 109.721 64.5662 109.758C64.6311 109.795 64.7044 109.815 64.7792 109.815C64.8554 109.815 64.9302 109.794 64.995 109.754C67.7766 108.125 71.6211 103.283 71.8654 98.9669H84.7714C84.8781 98.9565 84.9772 98.9067 85.0492 98.8273C85.1213 98.7479 85.1612 98.6445 85.1612 98.5373C85.1612 98.4301 85.1213 98.3267 85.0492 98.2473C84.9772 98.1678 84.8781 98.1181 84.7714 98.1077Z" fill="white"/>
<path d="M63.3723 80.083C63.4982 79.9989 63.6462 79.954 63.7977 79.954C64.0007 79.954 64.1955 80.0347 64.339 80.1782C64.4826 80.3218 64.5633 80.5165 64.5633 80.7196C64.5633 80.871 64.5184 81.019 64.4343 81.1449C64.3501 81.2708 64.2306 81.3689 64.0907 81.4269C63.9507 81.4848 63.7968 81.5 63.6483 81.4704C63.4998 81.4409 63.3633 81.368 63.2563 81.2609C63.1492 81.1538 63.0763 81.0174 63.0467 80.8689C63.0172 80.7204 63.0323 80.5665 63.0903 80.4266C63.1482 80.2867 63.2464 80.1672 63.3723 80.083Z" fill="white"/>
<path d="M95.8251 91.0154C95.7309 90.888 95.6628 90.7433 95.6247 90.5896C95.5865 90.4358 95.5789 90.2761 95.6025 90.1194C95.6501 89.8031 95.8213 89.5186 96.0787 89.3285C96.336 89.1384 96.6583 89.0584 96.9747 89.1059C97.2911 89.1535 97.5756 89.3248 97.7656 89.5821C98.2114 90.1803 98.5598 90.8452 98.7979 91.5522C99.0454 92.2857 99.1709 93.0548 99.1695 93.829C99.1703 94.6012 99.0448 95.3683 98.7979 96.0999C98.5598 96.8069 98.2114 97.4718 97.7656 98.07C97.5756 98.3273 97.2911 98.4986 96.9747 98.5462C96.6583 98.5937 96.336 98.5137 96.0787 98.3236C95.8213 98.1335 95.6501 97.849 95.6025 97.5327C95.5549 97.2163 95.635 96.894 95.8251 96.6367C96.1196 96.2447 96.3505 95.8088 96.5093 95.3449C96.6781 94.8572 96.7658 94.3451 96.7688 93.829C96.7708 93.3159 96.6891 92.8058 96.527 92.319C96.3639 91.8499 96.1269 91.4098 95.8251 91.0154ZM99.9539 88.7681C100.893 90.2888 101.387 92.0419 101.381 93.829C101.389 95.6129 100.899 97.3637 99.9657 98.8839C99.8825 99.0187 99.8266 99.1686 99.8012 99.325C99.7759 99.4814 99.7816 99.6412 99.818 99.7954C99.8544 99.9496 99.9208 100.095 100.014 100.224C100.106 100.352 100.223 100.461 100.358 100.544C100.493 100.628 100.643 100.684 100.799 100.709C100.955 100.734 101.115 100.729 101.269 100.692C101.424 100.656 101.569 100.589 101.698 100.497C101.826 100.404 101.935 100.287 102.018 100.152C103.188 98.2514 103.801 96.0607 103.788 93.829C103.802 91.5953 103.189 89.4026 102.018 87.5C101.935 87.3652 101.826 87.2481 101.698 87.1555C101.569 87.0628 101.424 86.9964 101.269 86.96C101.115 86.9236 100.955 86.9179 100.799 86.9432C100.643 86.9686 100.493 87.0245 100.358 87.1077C100.223 87.191 100.106 87.3 100.014 87.4285C99.9208 87.557 99.8544 87.7025 99.818 87.8567C99.7816 88.0109 99.7759 88.1707 99.8012 88.3271C99.8266 88.4835 99.8825 88.6334 99.9657 88.7681H99.9539ZM104.348 86.4972C105.652 88.7293 106.338 91.2679 106.336 93.8526C106.337 96.4353 105.651 98.9718 104.348 101.202C104.268 101.339 104.216 101.49 104.194 101.647C104.172 101.804 104.182 101.964 104.222 102.117C104.262 102.27 104.331 102.414 104.427 102.541C104.523 102.667 104.642 102.773 104.779 102.854C104.916 102.934 105.067 102.986 105.224 103.008C105.381 103.03 105.54 103.02 105.694 102.98C105.847 102.94 105.991 102.871 106.118 102.775C106.244 102.679 106.35 102.56 106.43 102.423C107.953 99.826 108.754 96.869 108.749 93.8585C108.759 90.8369 107.96 87.8677 106.436 85.2586C106.272 84.9817 106.005 84.7814 105.693 84.7017C105.381 84.6221 105.05 84.6696 104.773 84.8339C104.496 84.9982 104.296 85.2657 104.216 85.5776C104.136 85.8896 104.184 86.2204 104.348 86.4972ZM108.725 84.1969C110.401 87.1384 111.28 90.4669 111.273 93.8526C111.279 97.2363 110.401 100.563 108.725 103.502C108.647 103.64 108.598 103.791 108.579 103.948C108.56 104.105 108.572 104.264 108.614 104.415C108.657 104.567 108.729 104.71 108.826 104.834C108.924 104.958 109.045 105.062 109.182 105.139C109.32 105.217 109.471 105.266 109.628 105.285C109.784 105.304 109.943 105.292 110.095 105.25C110.247 105.207 110.389 105.135 110.513 105.038C110.638 104.94 110.741 104.82 110.819 104.682C112.701 101.377 113.689 97.6384 113.685 93.8349C113.694 90.0214 112.706 86.2719 110.819 82.9582C110.662 82.6805 110.402 82.4764 110.095 82.3906C109.788 82.3049 109.46 82.3446 109.182 82.5011C108.904 82.6575 108.7 82.9178 108.614 83.2248C108.529 83.5318 108.568 83.8602 108.725 84.1379" fill="white"/>
<path d="M45.7736 126.43H39.0736V130.41C39.3536 130.037 39.7669 129.723 40.3136 129.47C40.8736 129.217 41.4669 129.09 42.0936 129.09C43.2136 129.09 44.1202 129.33 44.8136 129.81C45.5202 130.29 46.0202 130.897 46.3136 131.63C46.6202 132.363 46.7736 133.137 46.7736 133.95C46.7736 134.937 46.5802 135.817 46.1936 136.59C45.8202 137.35 45.2536 137.95 44.4936 138.39C43.7469 138.83 42.8269 139.05 41.7336 139.05C40.2802 139.05 39.1136 138.69 38.2336 137.97C37.3536 137.25 36.8269 136.297 36.6536 135.11H38.8736C39.0202 135.737 39.3469 136.237 39.8535 136.61C40.3602 136.97 40.9936 137.15 41.7536 137.15C42.7002 137.15 43.4069 136.863 43.8736 136.29C44.3536 135.717 44.5936 134.957 44.5936 134.01C44.5936 133.05 44.3536 132.317 43.8736 131.81C43.3936 131.29 42.6869 131.03 41.7536 131.03C41.1002 131.03 40.5469 131.197 40.0936 131.53C39.6536 131.85 39.3336 132.29 39.1336 132.85H36.9736V124.43H45.7736V126.43Z" fill="#DDD9D6"/>
<path d="M48.847 131.57C48.847 129.263 49.2337 127.463 50.007 126.17C50.7937 124.863 52.1403 124.21 54.047 124.21C55.9537 124.21 57.2937 124.863 58.067 126.17C58.8537 127.463 59.247 129.263 59.247 131.57C59.247 133.903 58.8537 135.73 58.067 137.05C57.2937 138.357 55.9537 139.01 54.047 139.01C52.1403 139.01 50.7937 138.357 50.007 137.05C49.2337 135.73 48.847 133.903 48.847 131.57ZM57.007 131.57C57.007 130.49 56.9337 129.577 56.787 128.83C56.6537 128.083 56.3737 127.477 55.947 127.01C55.5203 126.53 54.887 126.29 54.047 126.29C53.207 126.29 52.5737 126.53 52.147 127.01C51.7203 127.477 51.4337 128.083 51.287 128.83C51.1537 129.577 51.087 130.49 51.087 131.57C51.087 132.69 51.1537 133.63 51.287 134.39C51.4203 135.15 51.7003 135.763 52.127 136.23C52.567 136.697 53.207 136.93 54.047 136.93C54.887 136.93 55.5203 136.697 55.947 136.23C56.387 135.763 56.6737 135.15 56.807 134.39C56.9403 133.63 57.007 132.69 57.007 131.57Z" fill="#DDD9D6"/>
<path d="M61.3595 131.57C61.3595 129.263 61.7462 127.463 62.5195 126.17C63.3062 124.863 64.6528 124.21 66.5595 124.21C68.4662 124.21 69.8062 124.863 70.5795 126.17C71.3662 127.463 71.7595 129.263 71.7595 131.57C71.7595 133.903 71.3662 135.73 70.5795 137.05C69.8062 138.357 68.4662 139.01 66.5595 139.01C64.6528 139.01 63.3062 138.357 62.5195 137.05C61.7462 135.73 61.3595 133.903 61.3595 131.57ZM69.5195 131.57C69.5195 130.49 69.4462 129.577 69.2995 128.83C69.1662 128.083 68.8862 127.477 68.4595 127.01C68.0328 126.53 67.3995 126.29 66.5595 126.29C65.7195 126.29 65.0862 126.53 64.6595 127.01C64.2328 127.477 63.9462 128.083 63.7995 128.83C63.6662 129.577 63.5995 130.49 63.5995 131.57C63.5995 132.69 63.6662 133.63 63.7995 134.39C63.9328 135.15 64.2128 135.763 64.6395 136.23C65.0795 136.697 65.7195 136.93 66.5595 136.93C67.3995 136.93 68.0328 136.697 68.4595 136.23C68.8995 135.763 69.1862 135.15 69.3195 134.39C69.4528 133.63 69.5195 132.69 69.5195 131.57Z" fill="#DDD9D6"/>
<path d="M73.872 131.57C73.872 129.263 74.2586 127.463 75.032 126.17C75.8186 124.863 77.1653 124.21 79.072 124.21C80.9786 124.21 82.3187 124.863 83.092 126.17C83.8787 127.463 84.272 129.263 84.272 131.57C84.272 133.903 83.8787 135.73 83.092 137.05C82.3187 138.357 80.9786 139.01 79.072 139.01C77.1653 139.01 75.8186 138.357 75.032 137.05C74.2586 135.73 73.872 133.903 73.872 131.57ZM82.032 131.57C82.032 130.49 81.9587 129.577 81.812 128.83C81.6787 128.083 81.3987 127.477 80.972 127.01C80.5453 126.53 79.912 126.29 79.072 126.29C78.232 126.29 77.5987 126.53 77.172 127.01C76.7453 127.477 76.4587 128.083 76.312 128.83C76.1787 129.577 76.112 130.49 76.112 131.57C76.112 132.69 76.1787 133.63 76.312 134.39C76.4453 135.15 76.7253 135.763 77.152 136.23C77.592 136.697 78.232 136.93 79.072 136.93C79.912 136.93 80.5453 136.697 80.972 136.23C81.412 135.763 81.6987 135.15 81.832 134.39C81.9653 133.63 82.032 132.69 82.032 131.57Z" fill="#DDD9D6"/>
<path d="M101.374 131.57C101.374 129.263 101.76 127.463 102.534 126.17C103.32 124.863 104.667 124.21 106.574 124.21C108.48 124.21 109.82 124.863 110.594 126.17C111.38 127.463 111.774 129.263 111.774 131.57C111.774 133.903 111.38 135.73 110.594 137.05C109.82 138.357 108.48 139.01 106.574 139.01C104.667 139.01 103.32 138.357 102.534 137.05C101.76 135.73 101.374 133.903 101.374 131.57ZM109.534 131.57C109.534 130.49 109.46 129.577 109.314 128.83C109.18 128.083 108.9 127.477 108.474 127.01C108.047 126.53 107.414 126.29 106.574 126.29C105.734 126.29 105.1 126.53 104.674 127.01C104.247 127.477 103.96 128.083 103.814 128.83C103.68 129.577 103.614 130.49 103.614 131.57C103.614 132.69 103.68 133.63 103.814 134.39C103.947 135.15 104.227 135.763 104.654 136.23C105.094 136.697 105.734 136.93 106.574 136.93C107.414 136.93 108.047 136.697 108.474 136.23C108.914 135.763 109.2 135.15 109.334 134.39C109.467 133.63 109.534 132.69 109.534 131.57Z" fill="#DDD9D6"/>
<path d="M113.886 131.57C113.886 129.263 114.273 127.463 115.046 126.17C115.833 124.863 117.179 124.21 119.086 124.21C120.993 124.21 122.333 124.863 123.106 126.17C123.893 127.463 124.286 129.263 124.286 131.57C124.286 133.903 123.893 135.73 123.106 137.05C122.333 138.357 120.993 139.01 119.086 139.01C117.179 139.01 115.833 138.357 115.046 137.05C114.273 135.73 113.886 133.903 113.886 131.57ZM122.046 131.57C122.046 130.49 121.973 129.577 121.826 128.83C121.693 128.083 121.413 127.477 120.986 127.01C120.559 126.53 119.926 126.29 119.086 126.29C118.246 126.29 117.613 126.53 117.186 127.01C116.759 127.477 116.473 128.083 116.326 128.83C116.193 129.577 116.126 130.49 116.126 131.57C116.126 132.69 116.193 133.63 116.326 134.39C116.459 135.15 116.739 135.763 117.166 136.23C117.606 136.697 118.246 136.93 119.086 136.93C119.926 136.93 120.559 136.697 120.986 136.23C121.426 135.763 121.713 135.15 121.846 134.39C121.979 133.63 122.046 132.69 122.046 131.57Z" fill="#DDD9D6"/>
<path d="M126.399 131.57C126.399 129.263 126.785 127.463 127.559 126.17C128.345 124.863 129.692 124.21 131.599 124.21C133.505 124.21 134.845 124.863 135.619 126.17C136.405 127.463 136.799 129.263 136.799 131.57C136.799 133.903 136.405 135.73 135.619 137.05C134.845 138.357 133.505 139.01 131.599 139.01C129.692 139.01 128.345 138.357 127.559 137.05C126.785 135.73 126.399 133.903 126.399 131.57ZM134.559 131.57C134.559 130.49 134.485 129.577 134.339 128.83C134.205 128.083 133.925 127.477 133.499 127.01C133.072 126.53 132.439 126.29 131.599 126.29C130.759 126.29 130.125 126.53 129.699 127.01C129.272 127.477 128.985 128.083 128.839 128.83C128.705 129.577 128.639 130.49 128.639 131.57C128.639 132.69 128.705 133.63 128.839 134.39C128.972 135.15 129.252 135.763 129.679 136.23C130.119 136.697 130.759 136.93 131.599 136.93C132.439 136.93 133.072 136.697 133.499 136.23C133.939 135.763 134.225 135.15 134.359 134.39C134.492 133.63 134.559 132.69 134.559 131.57Z" fill="#DDD9D6"/>
<path d="M138.911 131.57C138.911 129.263 139.298 127.463 140.071 126.17C140.858 124.863 142.204 124.21 144.111 124.21C146.018 124.21 147.358 124.863 148.131 126.17C148.918 127.463 149.311 129.263 149.311 131.57C149.311 133.903 148.918 135.73 148.131 137.05C147.358 138.357 146.018 139.01 144.111 139.01C142.204 139.01 140.858 138.357 140.071 137.05C139.298 135.73 138.911 133.903 138.911 131.57ZM147.071 131.57C147.071 130.49 146.998 129.577 146.851 128.83C146.718 128.083 146.438 127.477 146.011 127.01C145.584 126.53 144.951 126.29 144.111 126.29C143.271 126.29 142.638 126.53 142.211 127.01C141.784 127.477 141.498 128.083 141.351 128.83C141.218 129.577 141.151 130.49 141.151 131.57C141.151 132.69 141.218 133.63 141.351 134.39C141.484 135.15 141.764 135.763 142.191 136.23C142.631 136.697 143.271 136.93 144.111 136.93C144.951 136.93 145.584 136.697 146.011 136.23C146.451 135.763 146.738 135.15 146.871 134.39C147.004 133.63 147.071 132.69 147.071 131.57Z" fill="#DDD9D6"/>
<path d="M166.374 131.57C166.374 129.263 166.76 127.463 167.534 126.17C168.32 124.863 169.667 124.21 171.574 124.21C173.48 124.21 174.82 124.863 175.594 126.17C176.38 127.463 176.774 129.263 176.774 131.57C176.774 133.903 176.38 135.73 175.594 137.05C174.82 138.357 173.48 139.01 171.574 139.01C169.667 139.01 168.32 138.357 167.534 137.05C166.76 135.73 166.374 133.903 166.374 131.57ZM174.534 131.57C174.534 130.49 174.46 129.577 174.314 128.83C174.18 128.083 173.9 127.477 173.474 127.01C173.047 126.53 172.414 126.29 171.574 126.29C170.734 126.29 170.1 126.53 169.674 127.01C169.247 127.477 168.96 128.083 168.814 128.83C168.68 129.577 168.614 130.49 168.614 131.57C168.614 132.69 168.68 133.63 168.814 134.39C168.947 135.15 169.227 135.763 169.654 136.23C170.094 136.697 170.734 136.93 171.574 136.93C172.414 136.93 173.047 136.697 173.474 136.23C173.914 135.763 174.2 135.15 174.334 134.39C174.467 133.63 174.534 132.69 174.534 131.57Z" fill="#DDD9D6"/>
<path d="M178.886 131.57C178.886 129.263 179.273 127.463 180.046 126.17C180.833 124.863 182.179 124.21 184.086 124.21C185.993 124.21 187.333 124.863 188.106 126.17C188.893 127.463 189.286 129.263 189.286 131.57C189.286 133.903 188.893 135.73 188.106 137.05C187.333 138.357 185.993 139.01 184.086 139.01C182.179 139.01 180.833 138.357 180.046 137.05C179.273 135.73 178.886 133.903 178.886 131.57ZM187.046 131.57C187.046 130.49 186.973 129.577 186.826 128.83C186.693 128.083 186.413 127.477 185.986 127.01C185.559 126.53 184.926 126.29 184.086 126.29C183.246 126.29 182.613 126.53 182.186 127.01C181.759 127.477 181.473 128.083 181.326 128.83C181.193 129.577 181.126 130.49 181.126 131.57C181.126 132.69 181.193 133.63 181.326 134.39C181.459 135.15 181.739 135.763 182.166 136.23C182.606 136.697 183.246 136.93 184.086 136.93C184.926 136.93 185.559 136.697 185.986 136.23C186.426 135.763 186.713 135.15 186.846 134.39C186.979 133.63 187.046 132.69 187.046 131.57Z" fill="#DDD9D6"/>
<path d="M191.399 131.57C191.399 129.263 191.785 127.463 192.559 126.17C193.345 124.863 194.692 124.21 196.599 124.21C198.505 124.21 199.845 124.863 200.619 126.17C201.405 127.463 201.799 129.263 201.799 131.57C201.799 133.903 201.405 135.73 200.619 137.05C199.845 138.357 198.505 139.01 196.599 139.01C194.692 139.01 193.345 138.357 192.559 137.05C191.785 135.73 191.399 133.903 191.399 131.57ZM199.559 131.57C199.559 130.49 199.485 129.577 199.339 128.83C199.205 128.083 198.925 127.477 198.499 127.01C198.072 126.53 197.439 126.29 196.599 126.29C195.759 126.29 195.125 126.53 194.699 127.01C194.272 127.477 193.985 128.083 193.839 128.83C193.705 129.577 193.639 130.49 193.639 131.57C193.639 132.69 193.705 133.63 193.839 134.39C193.972 135.15 194.252 135.763 194.679 136.23C195.119 136.697 195.759 136.93 196.599 136.93C197.439 136.93 198.072 136.697 198.499 136.23C198.939 135.763 199.225 135.15 199.359 134.39C199.492 133.63 199.559 132.69 199.559 131.57Z" fill="#DDD9D6"/>
<path d="M203.911 131.57C203.911 129.263 204.298 127.463 205.071 126.17C205.858 124.863 207.204 124.21 209.111 124.21C211.018 124.21 212.358 124.863 213.131 126.17C213.918 127.463 214.311 129.263 214.311 131.57C214.311 133.903 213.918 135.73 213.131 137.05C212.358 138.357 211.018 139.01 209.111 139.01C207.204 139.01 205.858 138.357 205.071 137.05C204.298 135.73 203.911 133.903 203.911 131.57ZM212.071 131.57C212.071 130.49 211.998 129.577 211.851 128.83C211.718 128.083 211.438 127.477 211.011 127.01C210.584 126.53 209.951 126.29 209.111 126.29C208.271 126.29 207.638 126.53 207.211 127.01C206.784 127.477 206.498 128.083 206.351 128.83C206.218 129.577 206.151 130.49 206.151 131.57C206.151 132.69 206.218 133.63 206.351 134.39C206.484 135.15 206.764 135.763 207.191 136.23C207.631 136.697 208.271 136.93 209.111 136.93C209.951 136.93 210.584 136.697 211.011 136.23C211.451 135.763 211.738 135.15 211.871 134.39C212.004 133.63 212.071 132.69 212.071 131.57Z" fill="#DDD9D6"/>
<path d="M231.374 131.57C231.374 129.263 231.76 127.463 232.534 126.17C233.32 124.863 234.667 124.21 236.574 124.21C238.48 124.21 239.82 124.863 240.594 126.17C241.38 127.463 241.774 129.263 241.774 131.57C241.774 133.903 241.38 135.73 240.594 137.05C239.82 138.357 238.48 139.01 236.574 139.01C234.667 139.01 233.32 138.357 232.534 137.05C231.76 135.73 231.374 133.903 231.374 131.57ZM239.534 131.57C239.534 130.49 239.46 129.577 239.314 128.83C239.18 128.083 238.9 127.477 238.474 127.01C238.047 126.53 237.414 126.29 236.574 126.29C235.734 126.29 235.1 126.53 234.674 127.01C234.247 127.477 233.96 128.083 233.814 128.83C233.68 129.577 233.614 130.49 233.614 131.57C233.614 132.69 233.68 133.63 233.814 134.39C233.947 135.15 234.227 135.763 234.654 136.23C235.094 136.697 235.734 136.93 236.574 136.93C237.414 136.93 238.047 136.697 238.474 136.23C238.914 135.763 239.2 135.15 239.334 134.39C239.467 133.63 239.534 132.69 239.534 131.57Z" fill="#DDD9D6"/>
<path d="M243.886 131.57C243.886 129.263 244.273 127.463 245.046 126.17C245.833 124.863 247.179 124.21 249.086 124.21C250.993 124.21 252.333 124.863 253.106 126.17C253.893 127.463 254.286 129.263 254.286 131.57C254.286 133.903 253.893 135.73 253.106 137.05C252.333 138.357 250.993 139.01 249.086 139.01C247.179 139.01 245.833 138.357 245.046 137.05C244.273 135.73 243.886 133.903 243.886 131.57ZM252.046 131.57C252.046 130.49 251.973 129.577 251.826 128.83C251.693 128.083 251.413 127.477 250.986 127.01C250.559 126.53 249.926 126.29 249.086 126.29C248.246 126.29 247.613 126.53 247.186 127.01C246.759 127.477 246.473 128.083 246.326 128.83C246.193 129.577 246.126 130.49 246.126 131.57C246.126 132.69 246.193 133.63 246.326 134.39C246.459 135.15 246.739 135.763 247.166 136.23C247.606 136.697 248.246 136.93 249.086 136.93C249.926 136.93 250.559 136.697 250.986 136.23C251.426 135.763 251.713 135.15 251.846 134.39C251.979 133.63 252.046 132.69 252.046 131.57Z" fill="#DDD9D6"/>
<path d="M256.399 131.57C256.399 129.263 256.785 127.463 257.559 126.17C258.345 124.863 259.692 124.21 261.599 124.21C263.505 124.21 264.845 124.863 265.619 126.17C266.405 127.463 266.799 129.263 266.799 131.57C266.799 133.903 266.405 135.73 265.619 137.05C264.845 138.357 263.505 139.01 261.599 139.01C259.692 139.01 258.345 138.357 257.559 137.05C256.785 135.73 256.399 133.903 256.399 131.57ZM264.559 131.57C264.559 130.49 264.485 129.577 264.339 128.83C264.205 128.083 263.925 127.477 263.499 127.01C263.072 126.53 262.439 126.29 261.599 126.29C260.759 126.29 260.125 126.53 259.699 127.01C259.272 127.477 258.985 128.083 258.839 128.83C258.705 129.577 258.639 130.49 258.639 131.57C258.639 132.69 258.705 133.63 258.839 134.39C258.972 135.15 259.252 135.763 259.679 136.23C260.119 136.697 260.759 136.93 261.599 136.93C262.439 136.93 263.072 136.697 263.499 136.23C263.939 135.763 264.225 135.15 264.359 134.39C264.492 133.63 264.559 132.69 264.559 131.57Z" fill="#DDD9D6"/>
<path d="M268.911 131.57C268.911 129.263 269.298 127.463 270.071 126.17C270.858 124.863 272.204 124.21 274.111 124.21C276.018 124.21 277.358 124.863 278.131 126.17C278.918 127.463 279.311 129.263 279.311 131.57C279.311 133.903 278.918 135.73 278.131 137.05C277.358 138.357 276.018 139.01 274.111 139.01C272.204 139.01 270.858 138.357 270.071 137.05C269.298 135.73 268.911 133.903 268.911 131.57ZM277.071 131.57C277.071 130.49 276.998 129.577 276.851 128.83C276.718 128.083 276.438 127.477 276.011 127.01C275.584 126.53 274.951 126.29 274.111 126.29C273.271 126.29 272.638 126.53 272.211 127.01C271.784 127.477 271.498 128.083 271.351 128.83C271.218 129.577 271.151 130.49 271.151 131.57C271.151 132.69 271.218 133.63 271.351 134.39C271.484 135.15 271.764 135.763 272.191 136.23C272.631 136.697 273.271 136.93 274.111 136.93C274.951 136.93 275.584 136.697 276.011 136.23C276.451 135.763 276.738 135.15 276.871 134.39C277.004 133.63 277.071 132.69 277.071 131.57Z" fill="#DDD9D6"/>
<path d="M123.954 161.188C123.954 159.689 124.205 158.519 124.708 157.678C125.219 156.829 126.094 156.404 127.334 156.404C128.573 156.404 129.444 156.829 129.947 157.678C130.458 158.519 130.714 159.689 130.714 161.188C130.714 162.705 130.458 163.892 129.947 164.75C129.444 165.599 128.573 166.024 127.334 166.024C126.094 166.024 125.219 165.599 124.708 164.75C124.205 163.892 123.954 162.705 123.954 161.188ZM129.258 161.188C129.258 160.486 129.21 159.892 129.115 159.407C129.028 158.922 128.846 158.527 128.569 158.224C128.291 157.912 127.88 157.756 127.334 157.756C126.788 157.756 126.376 157.912 126.099 158.224C125.821 158.527 125.635 158.922 125.54 159.407C125.453 159.892 125.41 160.486 125.41 161.188C125.41 161.916 125.453 162.527 125.54 163.021C125.626 163.515 125.808 163.914 126.086 164.217C126.372 164.52 126.788 164.672 127.334 164.672C127.88 164.672 128.291 164.52 128.569 164.217C128.855 163.914 129.041 163.515 129.128 163.021C129.214 162.527 129.258 161.916 129.258 161.188Z" fill="#DDD9D6"/>
<path d="M131.982 161.188C131.982 159.689 132.233 158.519 132.736 157.678C133.247 156.829 134.122 156.404 135.362 156.404C136.601 156.404 137.472 156.829 137.975 157.678C138.486 158.519 138.742 159.689 138.742 161.188C138.742 162.705 138.486 163.892 137.975 164.75C137.472 165.599 136.601 166.024 135.362 166.024C134.122 166.024 133.247 165.599 132.736 164.75C132.233 163.892 131.982 162.705 131.982 161.188ZM137.286 161.188C137.286 160.486 137.238 159.892 137.143 159.407C137.056 158.922 136.874 158.527 136.597 158.224C136.319 157.912 135.908 157.756 135.362 157.756C134.816 157.756 134.404 157.912 134.127 158.224C133.849 158.527 133.663 158.922 133.568 159.407C133.481 159.892 133.438 160.486 133.438 161.188C133.438 161.916 133.481 162.527 133.568 163.021C133.654 163.515 133.836 163.914 134.114 164.217C134.4 164.52 134.816 164.672 135.362 164.672C135.908 164.672 136.319 164.52 136.597 164.217C136.883 163.914 137.069 163.515 137.156 163.021C137.242 162.527 137.286 161.916 137.286 161.188Z" fill="#DDD9D6"/>
<path d="M145.015 153.778L141.479 168.325H140.023L143.546 153.778H145.015Z" fill="#DDD9D6"/>
<path d="M146.388 161.188C146.388 159.689 146.639 158.519 147.142 157.678C147.653 156.829 148.528 156.404 149.768 156.404C151.007 156.404 151.878 156.829 152.381 157.678C152.892 158.519 153.148 159.689 153.148 161.188C153.148 162.705 152.892 163.892 152.381 164.75C151.878 165.599 151.007 166.024 149.768 166.024C148.528 166.024 147.653 165.599 147.142 164.75C146.639 163.892 146.388 162.705 146.388 161.188ZM151.692 161.188C151.692 160.486 151.644 159.892 151.549 159.407C151.462 158.922 151.28 158.527 151.003 158.224C150.725 157.912 150.314 157.756 149.768 157.756C149.222 157.756 148.81 157.912 148.533 158.224C148.255 158.527 148.069 158.922 147.974 159.407C147.887 159.892 147.844 160.486 147.844 161.188C147.844 161.916 147.887 162.527 147.974 163.021C148.06 163.515 148.242 163.914 148.52 164.217C148.806 164.52 149.222 164.672 149.768 164.672C150.314 164.672 150.725 164.52 151.003 164.217C151.289 163.914 151.475 163.515 151.562 163.021C151.648 162.527 151.692 161.916 151.692 161.188Z" fill="#DDD9D6"/>
<path d="M154.416 161.188C154.416 159.689 154.667 158.519 155.17 157.678C155.681 156.829 156.556 156.404 157.796 156.404C159.035 156.404 159.906 156.829 160.409 157.678C160.92 158.519 161.176 159.689 161.176 161.188C161.176 162.705 160.92 163.892 160.409 164.75C159.906 165.599 159.035 166.024 157.796 166.024C156.556 166.024 155.681 165.599 155.17 164.75C154.667 163.892 154.416 162.705 154.416 161.188ZM159.72 161.188C159.72 160.486 159.672 159.892 159.577 159.407C159.49 158.922 159.308 158.527 159.031 158.224C158.753 157.912 158.342 157.756 157.796 157.756C157.25 157.756 156.838 157.912 156.561 158.224C156.283 158.527 156.097 158.922 156.002 159.407C155.915 159.892 155.872 160.486 155.872 161.188C155.872 161.916 155.915 162.527 156.002 163.021C156.088 163.515 156.27 163.914 156.548 164.217C156.834 164.52 157.25 164.672 157.796 164.672C158.342 164.672 158.753 164.52 159.031 164.217C159.317 163.914 159.503 163.515 159.59 163.021C159.676 162.527 159.72 161.916 159.72 161.188Z" fill="#DDD9D6"/>
<path d="M39.7886 180.82V187.855C39.7886 188.445 39.7336 188.95 39.6236 189.37C39.5236 189.78 39.3136 190.11 38.9936 190.36C38.7636 190.54 38.4636 190.715 38.0936 190.885C37.7336 191.045 37.2536 191.165 36.6536 191.245L36.4886 190.18C36.9586 190.1 37.3286 190 37.5986 189.88C37.8786 189.75 38.0836 189.595 38.2136 189.415C38.3536 189.235 38.4386 189.015 38.4686 188.755C38.5086 188.495 38.5286 188.19 38.5286 187.84V180.82H39.7886Z" fill="#DDD9D6"/>
<path d="M42.5693 187.315C42.5693 188.285 42.7843 189.01 43.2143 189.49C43.6543 189.96 44.2443 190.195 44.9843 190.195C45.7143 190.195 46.2843 189.96 46.6943 189.49C47.1043 189.02 47.3093 188.315 47.3093 187.375C47.3093 186.375 47.0893 185.63 46.6493 185.14C46.2193 184.65 45.6293 184.405 44.8793 184.405C44.1293 184.405 43.5543 184.65 43.1543 185.14C42.7643 185.62 42.5693 186.345 42.5693 187.315ZM41.2943 187.3C41.2943 186.54 41.4143 185.91 41.6543 185.41C41.8943 184.9 42.1993 184.495 42.5693 184.195C42.9393 183.885 43.3343 183.67 43.7543 183.55C44.1843 183.42 44.5893 183.355 44.9693 183.355C45.3293 183.355 45.7193 183.415 46.1393 183.535C46.5693 183.645 46.9643 183.85 47.3243 184.15C47.6843 184.44 47.9843 184.835 48.2243 185.335C48.4643 185.825 48.5843 186.45 48.5843 187.21C48.5843 188 48.4593 188.655 48.2093 189.175C47.9693 189.695 47.6643 190.11 47.2943 190.42C46.9243 190.72 46.5243 190.93 46.0943 191.05C45.6643 191.18 45.2643 191.245 44.8943 191.245C44.5143 191.245 44.1143 191.185 43.6943 191.065C43.2743 190.945 42.8843 190.74 42.5243 190.45C42.1743 190.15 41.8793 189.745 41.6393 189.235C41.4093 188.725 41.2943 188.08 41.2943 187.3Z" fill="#DDD9D6"/>
<path d="M50.0276 179.815L51.2276 179.68V184.45C51.5276 184.25 51.8226 184.075 52.1126 183.925C52.4126 183.775 52.7176 183.645 53.0276 183.535C53.3376 183.415 53.6376 183.355 53.9276 183.355C54.3376 183.355 54.6776 183.405 54.9476 183.505C55.2276 183.595 55.4526 183.75 55.6226 183.97C55.7926 184.19 55.9126 184.48 55.9826 184.84C56.0626 185.2 56.1026 185.65 56.1026 186.19V191.05H54.9026V186.325C54.9026 186.025 54.8976 185.76 54.8876 185.53C54.8776 185.29 54.8326 185.09 54.7526 184.93C54.6826 184.76 54.5676 184.63 54.4076 184.54C54.2576 184.45 54.0426 184.405 53.7626 184.405C53.5026 184.405 53.2226 184.465 52.9226 184.585C52.6226 184.695 52.3376 184.825 52.0676 184.975C51.7976 185.125 51.5176 185.3 51.2276 185.5V191.05H50.0276V179.815Z" fill="#DDD9D6"/>
<path d="M57.931 185.005C57.941 184.795 57.9161 184.34 57.8561 183.64L58.966 183.49L59.1311 184.45C59.4311 184.25 59.7261 184.075 60.0161 183.925C60.3161 183.775 60.621 183.645 60.931 183.535C61.241 183.415 61.5411 183.355 61.8311 183.355C62.2411 183.355 62.5811 183.405 62.8511 183.505C63.1311 183.595 63.3561 183.75 63.5261 183.97C63.6961 184.19 63.8161 184.48 63.8861 184.84C63.9661 185.2 64.0061 185.65 64.0061 186.19V191.05H62.806V186.325C62.806 186.025 62.8011 185.76 62.791 185.53C62.7811 185.29 62.7361 185.09 62.6561 184.93C62.5861 184.76 62.4711 184.63 62.3111 184.54C62.1611 184.45 61.946 184.405 61.666 184.405C61.406 184.405 61.131 184.465 60.841 184.585C60.551 184.695 60.266 184.825 59.986 184.975C59.706 185.125 59.4211 185.3 59.1311 185.5V191.05H57.931V185.005Z" fill="#DDD9D6"/>
<path d="M70.4469 189.895H72.4719C73.0219 189.895 73.5369 189.825 74.0169 189.685C74.5069 189.545 74.9319 189.32 75.2919 189.01C75.6619 188.69 75.9519 188.275 76.1619 187.765C76.3719 187.255 76.4769 186.635 76.4769 185.905C76.4769 185.225 76.3819 184.64 76.1919 184.15C76.0019 183.65 75.7319 183.24 75.3819 182.92C75.0419 182.6 74.6219 182.365 74.1219 182.215C73.6319 182.055 73.0819 181.975 72.4719 181.975H70.4469V189.895ZM69.1869 180.82H72.4719C73.2819 180.82 74.0119 180.92 74.6619 181.12C75.3219 181.32 75.8869 181.63 76.3569 182.05C76.8269 182.47 77.1869 183 77.4369 183.64C77.6969 184.28 77.8269 185.035 77.8269 185.905C77.8269 186.785 77.6869 187.55 77.4069 188.2C77.1269 188.84 76.7469 189.375 76.2669 189.805C75.7869 190.225 75.2219 190.54 74.5719 190.75C73.9219 190.95 73.2219 191.05 72.4719 191.05H69.1869V180.82Z" fill="#DDD9D6"/>
<path d="M80.2246 187.315C80.2246 188.285 80.4396 189.01 80.8696 189.49C81.3096 189.96 81.8996 190.195 82.6396 190.195C83.3696 190.195 83.9396 189.96 84.3496 189.49C84.7596 189.02 84.9646 188.315 84.9646 187.375C84.9646 186.375 84.7446 185.63 84.3046 185.14C83.8746 184.65 83.2846 184.405 82.5346 184.405C81.7846 184.405 81.2096 184.65 80.8096 185.14C80.4196 185.62 80.2246 186.345 80.2246 187.315ZM78.9496 187.3C78.9496 186.54 79.0696 185.91 79.3096 185.41C79.5496 184.9 79.8546 184.495 80.2246 184.195C80.5946 183.885 80.9896 183.67 81.4096 183.55C81.8396 183.42 82.2446 183.355 82.6246 183.355C82.9846 183.355 83.3746 183.415 83.7946 183.535C84.2246 183.645 84.6196 183.85 84.9796 184.15C85.3396 184.44 85.6396 184.835 85.8796 185.335C86.1196 185.825 86.2396 186.45 86.2396 187.21C86.2396 188 86.1146 188.655 85.8646 189.175C85.6246 189.695 85.3196 190.11 84.9496 190.42C84.5796 190.72 84.1796 190.93 83.7496 191.05C83.3196 191.18 82.9196 191.245 82.5496 191.245C82.1696 191.245 81.7696 191.185 81.3496 191.065C80.9296 190.945 80.5396 190.74 80.1796 190.45C79.8296 190.15 79.5346 189.745 79.2946 189.235C79.0646 188.725 78.9496 188.08 78.9496 187.3Z" fill="#DDD9D6"/>
<path d="M93.2628 190.87C93.0328 190.94 92.7928 191 92.5428 191.05C92.3028 191.1 92.0328 191.145 91.7328 191.185C91.4428 191.225 91.1378 191.245 90.8178 191.245C90.3178 191.245 89.8528 191.175 89.4228 191.035C88.9928 190.895 88.6178 190.67 88.2978 190.36C87.9778 190.05 87.7228 189.65 87.5328 189.16C87.3528 188.66 87.2628 188.05 87.2628 187.33C87.2628 186.68 87.3528 186.11 87.5328 185.62C87.7128 185.12 87.9578 184.705 88.2678 184.375C88.5878 184.035 88.9578 183.78 89.3778 183.61C89.8078 183.44 90.2728 183.355 90.7729 183.355C91.2628 183.355 91.6878 183.45 92.0478 183.64C92.4078 183.83 92.7028 184.09 92.9328 184.42C93.1728 184.74 93.3478 185.12 93.4578 185.56C93.5778 185.99 93.6378 186.445 93.6378 186.925L93.4128 187.585H88.5678C88.5678 187.895 88.6079 188.205 88.6879 188.515C88.7679 188.825 88.9028 189.105 89.0928 189.355C89.2928 189.605 89.5478 189.81 89.8578 189.97C90.1778 190.12 90.5728 190.195 91.0428 190.195C91.3428 190.195 91.6178 190.18 91.8678 190.15C92.1178 190.11 92.3328 190.07 92.5128 190.03C92.7028 189.98 92.8778 189.925 93.0378 189.865L93.2628 190.87ZM92.3928 186.625C92.3928 186.555 92.3778 186.4 92.3478 186.16C92.3178 185.92 92.2478 185.67 92.1378 185.41C92.0278 185.15 91.8578 184.92 91.6278 184.72C91.3978 184.51 91.0928 184.405 90.7128 184.405C90.2928 184.405 89.9478 184.495 89.6778 184.675C89.4078 184.845 89.1928 185.05 89.0328 185.29C88.8728 185.53 88.7629 185.775 88.7029 186.025C88.6429 186.275 88.6128 186.475 88.6128 186.625H92.3928Z" fill="#DDD9D6"/>
<path d="M314.395 181.749C313.008 181.244 311.541 180.99 310.065 181C305.29 181 301.918 183.406 301.894 186.859C301.864 189.395 304.29 190.825 306.125 191.672C308.008 192.544 308.638 193.093 308.632 193.872C308.62 195.056 307.128 195.594 305.74 195.594C303.833 195.594 302.792 195.328 301.189 194.662L300.595 194.385L299.918 198.36C301.079 198.843 303.171 199.258 305.332 199.294C310.408 199.294 313.726 196.904 313.765 193.23C313.807 191.204 312.494 189.673 309.73 188.407C308.05 187.587 307.009 187.038 307.009 186.205C307.009 185.468 307.901 184.68 309.766 184.68C311.008 184.65 312.241 184.883 313.386 185.363L313.834 185.563L314.511 181.723L314.395 181.749ZM326.786 181.323H323.055C321.894 181.323 321.02 181.642 320.513 182.794L313.338 199.046H318.415L319.429 196.381L325.625 196.387C325.771 197.011 326.219 199.046 326.219 199.046H330.695L326.786 181.323ZM295.027 181.173H299.864L296.838 198.906H292.007L295.027 181.167V181.173ZM282.746 190.947L283.248 193.409L287.975 181.323H293.099L285.486 199.023H280.374L276.196 184.035C276.128 183.788 275.969 183.576 275.751 183.441C274.245 182.664 272.65 182.073 271 181.684L271.066 181.311H278.852C279.908 181.352 280.759 181.684 281.042 182.812L282.743 190.956V190.947H282.746ZM320.817 192.755L322.745 187.796C322.721 187.849 323.142 186.772 323.387 186.106L323.718 187.637L324.837 192.753H320.814V192.755H320.817Z" fill="white"/>
</svg>
